<?xml version="1.0" standalone="no"?>
<!DOCTYPE svg PUBLIC "-//W3C//DTD SVG 20010904//EN"
 "http://www.w3.org/TR/2001/REC-SVG-20010904/DTD/svg10.dtd">
<svg version="1.0" xmlns="http://www.w3.org/2000/svg"
 width="246.000000pt" height="145.000000pt" viewBox="0 0 246.000000 145.000000"
 preserveAspectRatio="xMidYMid meet">

<g transform="translate(0.000000,145.000000) scale(0.100000,-0.100000)"
fill="#000000" stroke="none">
<path d="M1739 1266 c-62 -17 -133 -60 -162 -99 -51 -67 -61 -98 -62 -187 0
-76 3 -91 30 -139 62 -113 187 -173 310 -150 49 9 88 28 150 71 6 4 -5 22 -25
43 -52 55 -63 58 -118 39 -60 -22 -111 -13 -156 26 -59 52 -66 152 -14 207 50
53 108 66 175 38 20 -9 44 -13 53 -10 25 8 94 86 84 94 -58 41 -101 61 -149
70 -68 13 -58 13 -116 -3z"/>
<path d="M457 1263 c-4 -3 -7 -132 -7 -285 l0 -279 68 3 67 3 5 156 5 156 109
-158 109 -159 74 0 73 0 -2 283 -3 282 -34 3 c-19 2 -50 1 -68 -3 l-33 -6 0
-149 c0 -83 -3 -150 -7 -150 -5 0 -54 67 -110 149 -88 127 -107 149 -134 155
-41 8 -104 8 -112 -1z"/>
<path d="M1107 1185 c-61 -62 -82 -118 -82 -211 0 -76 3 -85 36 -140 69 -113
200 -171 315 -141 53 14 144 62 144 76 0 11 -87 91 -99 91 -5 0 -25 -7 -44
-15 -50 -21 -93 -19 -138 7 -41 23 -79 85 -79 129 0 26 32 93 57 117 9 10 11
17 4 21 -6 4 -26 28 -45 55 l-34 48 -35 -37z"/>
<path d="M1090 415 l0 -225 28 -7 c53 -15 151 -8 180 14 48 36 66 80 66 158 0
115 -42 165 -138 165 -48 0 -60 -8 -50 -34 4 -11 19 -16 45 -16 26 0 44 -7 58
-21 43 -46 36 -171 -12 -204 -12 -8 -42 -15 -69 -15 l-48 0 0 205 0 205 -30 0
-30 0 0 -225z"/>
<path d="M434 596 c-3 -14 -5 -93 -3 -175 4 -162 10 -178 71 -224 58 -43 187
-29 233 25 37 44 46 94 43 250 l-3 143 -27 3 -28 3 -1 -148 c0 -215 -18 -248
-127 -240 -85 6 -86 10 -92 210 l-5 172 -27 3 c-22 3 -29 -2 -34 -22z"/>
<path d="M965 521 c-11 -5 -37 -6 -58 -3 l-37 5 2 -169 3 -169 28 -3 27 -3 0
124 c0 119 1 124 25 147 17 16 37 24 60 23 25 -1 36 4 40 18 4 10 3 23 0 29
-7 12 -61 12 -90 1z"/>
<path d="M1460 521 c-27 -7 -35 -28 -21 -49 6 -11 17 -11 49 -2 43 11 92 5
104 -14 4 -6 8 -23 8 -37 0 -22 -6 -28 -31 -33 -17 -3 -47 -6 -66 -6 -44 0
-103 -54 -103 -94 0 -90 66 -133 158 -103 45 15 53 15 81 1 17 -8 35 -13 41
-9 15 9 12 45 -5 51 -12 5 -15 29 -15 126 0 119 0 120 -29 149 -26 26 -36 29
-88 28 -32 -1 -69 -4 -83 -8z m140 -226 c0 -28 -5 -37 -30 -50 -57 -30 -110
-15 -110 31 0 33 37 54 92 54 l48 0 0 -35z"/>
<path d="M1848 516 c-16 -9 -30 -11 -33 -5 -4 5 -17 9 -31 9 l-24 0 0 -171 0
-170 28 3 27 3 3 127 3 128 29 15 c16 8 45 15 65 15 48 0 55 -22 55 -171 0
-119 0 -119 24 -119 32 0 36 15 36 123 -1 125 -12 176 -45 204 -31 27 -95 31
-137 9z"/>
</g>
</svg>
